<svg viewBox="0 0 24 24" fill="none" xmlns="http://www.w3.org/2000/svg">
<path fill-rule="evenodd" clip-rule="evenodd" d="M24 12C24 18.6274 18.6274 24 12 24C5.37258 24 0 18.6274 0 12C0 5.37258 5.37258 0 12 0C18.6274 0 24 5.37258 24 12ZM19.2585 17.8678C17.5474 19.9818 14.9315 21.3333 12 21.3333C9.06845 21.3333 6.45257 19.9818 4.7415 17.8678C5.14732 17.9544 5.56833 18 6 18H18C18.4317 18 18.8527 17.9544 19.2585 17.8678ZM4.74149 6.1322C6.45257 4.01822 9.06845 2.66667 12 2.66667C14.9315 2.66667 17.5474 4.01822 19.2585 6.1322C18.8527 6.04558 18.4317 6 18 6H6C5.56833 6 5.14732 6.04558 4.74149 6.1322ZM2.66667 12C2.66667 10.159 4.15905 8.66667 6 8.66667H12H18C19.8409 8.66667 21.3333 10.159 21.3333 12C21.3333 13.8409 19.8409 15.3333 18 15.3333H12H6C4.15905 15.3333 2.66667 13.8409 2.66667 12Z" fill="#4a4a4a"/>
</svg>
