<svg width="24" height="24" viewBox="0 0 24 24" fill="none" xmlns="http://www.w3.org/2000/svg">
<path fill-rule="evenodd" clip-rule="evenodd" d="M12 24C5.38712 24 0 18.6129 0 12C0 5.38712 5.38712 0 12 0C18.6129 0 24 5.38712 24 12C24 18.6129 18.6129 24 12 24ZM12 2.02918C9.90901 2.02918 8.20944 3.72876 8.20944 5.81974V18.1803C8.20944 20.2712 9.90901 21.9708 12 21.9708C14.091 21.9708 15.7906 20.2712 15.7906 18.1803V5.81974C15.7906 3.72876 14.091 2.02918 12 2.02918ZM17.6858 4.62489C17.7682 5.01631 17.8197 5.40773 17.8197 5.83004V18.1906C17.8197 18.6026 17.7785 19.0146 17.6961 19.4163L17.4798 20.4155L18.273 19.7768C20.6215 17.8712 21.9708 15.0386 21.9708 12.0206C21.9708 9.00258 20.6215 6.16996 18.2627 4.26438L17.4695 3.62575L17.6858 4.62489ZM5.73734 4.24378C3.38884 6.14936 2.02918 8.97167 2.02918 12C2.02918 15.0283 3.37854 17.8506 5.73734 19.7562L6.53047 20.3949L6.31416 19.3957C6.23176 18.994 6.19056 18.582 6.19056 18.17V5.81974C6.19056 5.40773 6.23176 4.99571 6.31416 4.59399L6.53047 3.59485L5.73734 4.23348V4.24378Z" fill="#4A4A4A"/>
</svg>
