<svg width="30" height="30" viewBox="0 0 30 30" fill="none" xmlns="http://www.w3.org/2000/svg">
<rect width="30" height="30" rx="15" fill="#3A3A3A"/>
<path fill-rule="evenodd" clip-rule="evenodd" d="M15 26C8.9382 26 4 21.0618 4 15C4 8.9382 8.9382 4 15 4C21.0618 4 26 8.9382 26 15C26 21.0618 21.0618 26 15 26ZM15 5.86009C13.0833 5.86009 11.5253 7.41803 11.5253 9.33476V20.6652C11.5253 22.582 13.0833 24.1399 15 24.1399C16.9167 24.1399 18.4747 22.582 18.4747 20.6652V9.33476C18.4747 7.41803 16.9167 5.86009 15 5.86009ZM20.212 8.23948C20.2876 8.59828 20.3348 8.95708 20.3348 9.34421V20.6747C20.3348 21.0524 20.297 21.43 20.2215 21.7983L20.0232 22.7142L20.7502 22.1288C22.903 20.382 24.1399 17.7854 24.1399 15.0189C24.1399 12.2524 22.903 9.65579 20.7408 7.90901L20.0137 7.32361L20.212 8.23948ZM9.25923 7.89013C7.10644 9.63691 5.86009 12.224 5.86009 15C5.86009 17.776 7.097 20.3631 9.25923 22.1099L9.98627 22.6953L9.78798 21.7794C9.71245 21.4112 9.67468 21.0335 9.67468 20.6558V9.33476C9.67468 8.95708 9.71245 8.5794 9.78798 8.21116L9.98627 7.29528L9.25923 7.88069V7.89013Z" fill="#FAFAFA"/>
</svg>
