<svg width="32" height="32" viewBox="0 0 32 32" fill="none" xmlns="http://www.w3.org/2000/svg">
<rect width="32" height="32" rx="16" fill="#4A4A4A"/>
<g clip-path="url(#clip0_116_2)">
<path d="M27.6618 18.5445C27.5594 16.4015 26.9646 14.3697 25.9693 12.827C24.8723 11.1265 23.3641 10.1418 21.7645 10.1418C20.1648 10.1418 18.6567 11.1265 17.5595 12.827C17.0126 13.6747 16.5866 14.6701 16.2969 15.7505C16.1467 15.3976 15.9726 15.0659 15.776 14.7612C15.0099 13.5737 13.9505 12.8772 12.819 12.8772C11.6874 12.8772 10.6281 13.5737 9.86187 14.7612C9.51389 15.3006 9.23637 15.9249 9.03705 16.6009C8.9868 16.5078 8.93365 16.4177 8.87764 16.3309C8.38035 15.5601 7.68575 15.0978 6.93444 15.0978C6.18313 15.0978 5.48852 15.5601 4.99123 16.3309C4.56821 16.9866 4.30725 17.8325 4.23826 18.7274C4.22579 18.8891 4.26187 19.0443 4.33655 19.1644C4.41005 19.2826 4.53551 19.3855 4.69937 19.3855C4.86412 19.3855 4.98664 19.2815 5.06202 19.1701C5.1389 19.0565 5.18621 18.9105 5.20152 18.7598C5.26237 18.1603 5.44366 17.6084 5.71679 17.1851C6.05781 16.6565 6.50018 16.3888 6.93444 16.3888C7.36869 16.3888 7.81105 16.6565 8.15209 17.1851C8.4252 17.6084 8.6065 18.1603 8.66735 18.7598C8.68265 18.9105 8.72998 19.0565 8.80686 19.1701C8.88223 19.2815 9.00475 19.3855 9.16949 19.3855C9.17273 19.3855 9.17592 19.3854 9.17912 19.3854C9.19294 19.3867 9.20702 19.3874 9.22132 19.3874C9.40554 19.3874 9.54619 19.2714 9.63477 19.1389C9.72475 19.0043 9.77949 18.8292 9.79323 18.6459C9.87487 17.5568 10.1908 16.5428 10.6882 15.7718C11.2714 14.8678 12.0422 14.3892 12.819 14.3892C13.5957 14.3892 14.3665 14.8678 14.9497 15.7718C15.4471 16.5428 15.7631 17.5568 15.8447 18.6459C15.8584 18.8292 15.9132 19.0043 16.0031 19.1389C16.0917 19.2714 16.2324 19.3874 16.4166 19.3874C16.4226 19.3874 16.4286 19.3873 16.4345 19.3871C16.4406 19.3873 16.4468 19.3874 16.4531 19.3874C16.6512 19.3874 16.8049 19.2628 16.9027 19.1152C17.0018 18.9656 17.0614 18.7697 17.073 18.5631C17.1708 16.8194 17.6614 15.184 18.458 13.9493C19.353 12.562 20.5468 11.8119 21.7645 11.8119C22.9822 11.8119 24.1759 12.562 25.0709 13.9493C25.8675 15.184 26.3582 16.8194 26.456 18.5631C26.4676 18.7697 26.5271 18.9656 26.6261 19.1152C26.7239 19.2628 26.8776 19.3874 27.0759 19.3874C27.2734 19.3874 27.4292 19.2634 27.5247 19.1119C27.6214 18.9584 27.672 18.7573 27.6618 18.5445Z" fill="url(#paint0_linear_116_2)" stroke="url(#paint1_linear_116_2)" stroke-width="0.3556"/>
</g>
<defs>
<linearGradient id="paint0_linear_116_2" x1="27.6631" y1="14.7646" x2="4.23584" y2="14.7646" gradientUnits="userSpaceOnUse">
<stop stop-color="white"/>
<stop offset="1" stop-color="#D5D5D5"/>
</linearGradient>
<linearGradient id="paint1_linear_116_2" x1="27.6631" y1="14.7646" x2="4.23584" y2="14.7646" gradientUnits="userSpaceOnUse">
<stop stop-color="white"/>
<stop offset="1" stop-color="#D5D5D5"/>
</linearGradient>
<clipPath id="clip0_116_2">
<rect width="23.9183" height="9.73666" fill="white" transform="translate(3.99072 9.89627)"/>
</clipPath>
</defs>
</svg>
